<svg xmlns="http://www.w3.org/2000/svg" viewBox="0 0 65.67 65.67"><defs><style>.cls-1,.cls-4{fill:#fff;}.cls-1,.cls-2,.cls-3{stroke:#1991a1;stroke-miterlimit:10;}.cls-1,.cls-3{opacity:0.8;}.cls-2,.cls-3{fill:#1991a1;stroke-width:13.73px;}</style></defs><title>icon-002</title><g id="Слой_2" data-name="Слой 2"><g id="Layer_5" data-name="Layer 5"><circle class="cls-1" cx="32.83" cy="32.83" r="32.33"/><path class="cls-2" d="M50.28,16.22c9.28,10.33,8.75,25.94-1.2,34.88s-25.53,7.81-34.81-2.52"/><path class="cls-3" d="M14.47,48.81a24.21,24.21,0,1,1,36-32.36"/><g id="Layer_1" data-name="Layer 1"><path class="cls-4" d="M40.48,23.68a.84.84,0,0,0-.34-.21L32.36,21a5.52,5.52,0,0,0-5.67,1.27,3.22,3.22,0,0,0-.69.94l-3.46,8.14a2.08,2.08,0,0,0,.18,1.71,3.33,3.33,0,0,0,2.21,1.75,3.22,3.22,0,0,0,3.06-1,3.17,3.17,0,0,0,.54-.69L29.68,31a4.53,4.53,0,0,1,.76-1c1-1,1.47-.54,1.67-.35C33.86,31.34,43,40.51,43,40.51A1.08,1.08,0,0,1,41.49,42l-2.56-2.56a.84.84,0,1,0-1.19,1.19L40.3,43.2A1.08,1.08,0,0,1,38.8,44.7l-2.57-2.56A.84.84,0,0,0,35,43.33l2.56,2.56a1.08,1.08,0,0,1-1.5,1.49l-2.56-2.56A.84.84,0,0,0,32.35,46l2.56,2.57a1.08,1.08,0,0,1-1.49,1.5L30.3,47A1.85,1.85,0,0,0,30,44.64a1.81,1.81,0,0,0-2.54-.15,1.91,1.91,0,0,0-2.69-2.69A1.92,1.92,0,0,0,22,39.12a1.81,1.81,0,0,0-.15-2.54,1.83,1.83,0,0,0-2.4-.26l-5.06-5.06a.85.85,0,0,0-1.2,1.2l5,5L16.79,39a1.92,1.92,0,0,0,2.69,2.69,1.92,1.92,0,0,0,2.69,2.69,1.92,1.92,0,0,0,2.69,2.69,1.91,1.91,0,0,0,2.69,2.69l1.58-1.58,3.1,3.1A2.65,2.65,0,0,0,36,51.12a2.86,2.86,0,0,0,.84-1.85,2.9,2.9,0,0,0,2.69-2.69,2.89,2.89,0,0,0,2.69-2.69A2.85,2.85,0,0,0,44,43.05a2.65,2.65,0,0,0,.15-3.73L42.88,38l5.37-5.37a.84.84,0,0,0,0-1.19Z"/><path class="cls-4" d="M53.2,25.56l-6.84-6.84a1.69,1.69,0,0,0-2.39,0l-2.39,2.39a1.69,1.69,0,0,0,0,2.39l6.84,6.84a1.69,1.69,0,0,0,2.39,0L53.2,28A1.69,1.69,0,0,0,53.2,25.56ZM49.61,29A1.39,1.39,0,1,1,51,27.66,1.39,1.39,0,0,1,49.61,29Z"/></g></g></g></svg>