<svg xmlns="http://www.w3.org/2000/svg" viewBox="0 0 65.23 65.23"><defs><style>.cls-1,.cls-4{fill:#fff;}.cls-1,.cls-2,.cls-3{stroke:#ffba1b;stroke-miterlimit:10;}.cls-1{stroke-width:0.57px;opacity:0.7;}.cls-2,.cls-3{fill:#ffba1b;}.cls-2{stroke-width:15.55px;opacity:0.8;}.cls-3{stroke-width:15.38px;}</style></defs><title>icon-001</title><g id="Слой_2" data-name="Слой 2"><g id="Layer_5" data-name="Layer 5"><circle class="cls-1" cx="32.62" cy="32.62" r="32.33"/><path class="cls-2" d="M16.09,48.37c-9-10-8.46-25.09,1.16-33.73s24.68-7.55,33.66,2.44"/><path class="cls-3" d="M50.72,16.87A23.41,23.41,0,1,1,15.9,48.16"/><g id="Layer_1" data-name="Layer 1"><path class="cls-4" d="M26.58,30.76h.88l.45-.76a3.5,3.5,0,0,1,.84-1l3.74-7L28,13.75a1.77,1.77,0,0,0-2.18-.82l-7.15,2.66a1.77,1.77,0,0,0-.88,2.61l8,12.65A3.52,3.52,0,0,1,26.58,30.76Z"/><path class="cls-4" d="M49.37,16.69a1.77,1.77,0,0,0-1.06-1.1l-7.15-2.66a1.77,1.77,0,0,0-2.18.82l-7.8,14.49a3.55,3.55,0,0,1,1.55.45l.76.44.76-.44A3.55,3.55,0,0,1,39.09,30l.44.76h.88a3.49,3.49,0,0,1,.78.1l8-12.65A1.77,1.77,0,0,0,49.37,16.69Z"/><path class="cls-4" d="M43.82,37.15l-1.64-1V34.3a1.77,1.77,0,0,0-1.76-1.76h-1.9l-1-1.64a1.77,1.77,0,0,0-2.41-.65l-1.64.94-1.64-.94a1.77,1.77,0,0,0-2.41.65l-1,1.64h-1.9a1.77,1.77,0,0,0-1.76,1.76v1.9l-1.64,1a1.77,1.77,0,0,0-.65,2.41l.94,1.64-.94,1.64a1.77,1.77,0,0,0,.65,2.41l1.64,1v1.9a1.78,1.78,0,0,0,1.76,1.77h1.9l1,1.64a1.77,1.77,0,0,0,2.41.65l1.64-.94,1.64.94a1.77,1.77,0,0,0,2.41-.65l1-1.64h1.9a1.77,1.77,0,0,0,1.76-1.77v-1.9l1.64-1a1.77,1.77,0,0,0,.65-2.41l-.94-1.64.94-1.64A1.77,1.77,0,0,0,43.82,37.15Zm-3.57,2.71-3.38,2.46,1.29,4a.84.84,0,0,1-1.28.93L33.5,44.76l-3.38,2.46a.83.83,0,0,1-1.28-.93l1.29-4-3.38-2.46a.84.84,0,0,1,.49-1.51h4.18l1.29-4a.83.83,0,0,1,1.59,0l1.29,4h4.18a.84.84,0,0,1,.49,1.51Z"/></g></g></g></svg>