<svg xmlns="http://www.w3.org/2000/svg" viewBox="0 0 65.67 65.67"><defs><style>.cls-1,.cls-4{fill:#fff;}.cls-1,.cls-2,.cls-3{stroke:#5dddd3;stroke-miterlimit:10;}.cls-2,.cls-3{fill:#5dddd3;stroke-width:13.91px;}.cls-3{opacity:0.8;}</style></defs><title>icon-003</title><g id="Слой_2" data-name="Слой 2"><g id="Layer_5" data-name="Layer 5"><circle class="cls-1" cx="32.83" cy="32.83" r="32.33"/><path class="cls-2" d="M51.5,15.81c9.4,10.46,8.86,26.28-1.21,35.34S24.43,59.06,15,48.6"/><path class="cls-3" d="M15.23,48.82A24.53,24.53,0,1,1,51.7,16"/><g id="Layer_1" data-name="Layer 1"><path class="cls-4" d="M33.4,21a10.08,10.08,0,0,0-10.23,9.89,11.77,11.77,0,0,0,2.49,7.19,4.24,4.24,0,0,1,1,2.09,4.28,4.28,0,0,0,1.91,3.4c0,.76.14,2.62.14,2.62h0c0,.53.3,1.61,2.11,2.21a3.06,3.06,0,0,0,.84.82,1.29,1.29,0,0,0,.72.22h2a1.28,1.28,0,0,0,.72-.22,3,3,0,0,0,.84-.82c1.83-.61,2.1-1.7,2.12-2.22,0,0,.11-1.85.14-2.62a4.28,4.28,0,0,0,1.91-3.4,4.25,4.25,0,0,1,1-2.1,11.75,11.75,0,0,0,2.49-7.19A10.07,10.07,0,0,0,33.4,21ZM39,36.61a6.23,6.23,0,0,0-1.47,3.55,1.92,1.92,0,0,1-1,1.39H30.24a1.92,1.92,0,0,1-1-1.39A6.26,6.26,0,0,0,27.8,36.6a9.26,9.26,0,0,1-2-5.72,7.65,7.65,0,0,1,15.28,0A9.27,9.27,0,0,1,39,36.61Z"/><path class="cls-4" d="M33.4,19A.65.65,0,0,0,34,18.4V16.46a.65.65,0,1,0-1.29,0V18.4A.65.65,0,0,0,33.4,19Z"/><path class="cls-4" d="M26.53,20.41a.65.65,0,0,0,1.12-.65l-1-1.68a.65.65,0,0,0-1.12.65Z"/><path class="cls-4" d="M22.8,24.15l-1.68-1a.65.65,0,0,0-.65,1.12l1.68,1a.65.65,0,1,0,.65-1.12Z"/><path class="cls-4" d="M21.43,31a.65.65,0,0,0-.65-.65H18.84a.65.65,0,1,0,0,1.29h1.94A.65.65,0,0,0,21.43,31Z"/><path class="cls-4" d="M22.15,36.77l-1.68,1a.65.65,0,1,0,.65,1.12l1.68-1a.65.65,0,1,0-.65-1.12Z"/><path class="cls-4" d="M46.33,37.74l-1.68-1A.65.65,0,1,0,44,37.89l1.68,1a.65.65,0,1,0,.65-1.12Z"/><path class="cls-4" d="M48,30.37H46a.65.65,0,0,0,0,1.29H48a.65.65,0,0,0,0-1.29Z"/><path class="cls-4" d="M44.33,25.35a.64.64,0,0,0,.32-.09l1.68-1a.65.65,0,1,0-.65-1.12l-1.68,1a.65.65,0,0,0,.32,1.21Z"/><path class="cls-4" d="M39.39,20.65a.64.64,0,0,0,.32.09.65.65,0,0,0,.56-.32l1-1.68a.65.65,0,1,0-1.12-.65l-1,1.68A.65.65,0,0,0,39.39,20.65Z"/><path class="cls-4" d="M32.54,34.92c.08.57.35.73.87.73s.79-.16.87-.73l.61-4.61a7.8,7.8,0,0,0,.08-.93V27.1a1.38,1.38,0,0,0-1.56-1.52,1.38,1.38,0,0,0-1.56,1.52v2.29a7.66,7.66,0,0,0,.08.93Z"/><path class="cls-4" d="M33.4,36.93A1.62,1.62,0,1,0,35,38.55,1.62,1.62,0,0,0,33.4,36.93Z"/></g></g></g></svg>