<svg xmlns="http://www.w3.org/2000/svg" viewBox="0 0 122.12 122.12"><defs><style>.cls-1{fill:none;stroke:#5dddd3;stroke-miterlimit:10;stroke-width:0.99px;}.cls-2{fill:#5dddd3;}.cls-3{fill:#807d7d;}.cls-4{fill:#ffba1b;}.cls-5{fill:#fff;}.cls-6{fill:#666;}.cls-7{fill:#c3cccf;}.cls-8{fill:#ff5b61;}.cls-9{fill:#ec4b53;}</style></defs><title>icon-011</title><g id="Слой_2" data-name="Слой 2"><g id="Layer_5" data-name="Layer 5"><circle class="cls-1" cx="61.06" cy="61.06" r="60.56"/><path class="cls-2" d="M60.89,120.75A59.53,59.53,0,1,0,1.37,61.23,59.64,59.64,0,0,0,60.89,120.75Z"/><path class="cls-3" d="M55.55,33.8h9v-20h-9v20Z"/><path class="cls-4" d="M51.06,76.25H69v-45h-18v45Z"/><path class="cls-5" d="M55.63,11.2h8.82a1.29,1.29,0,0,1,1.28,1.28v1.28H54.35V12.48A1.29,1.29,0,0,1,55.63,11.2Z"/><path class="cls-5" d="M50.13,74.51H70a2.35,2.35,0,1,1,0,4.7H50.13a2.35,2.35,0,1,1,0-4.7Z"/><path class="cls-3" d="M42.24,109.42H70.95A12.37,12.37,0,0,0,81.11,97.29V72.05A12.36,12.36,0,0,0,68.79,59.73H64.37v-8h3.21c11.06,0,23.23,9.06,23.37,20.1l.33,25.66c.06,4.48.14,8.65-2.38,12a1.94,1.94,0,0,1,1.34,1.83v7.48a1.94,1.94,0,0,1-1.92,1.92H42.24a1.93,1.93,0,0,1-1.92-1.92v-7.48a1.93,1.93,0,0,1,1.92-1.92Z"/><path class="cls-6" d="M70.95,109.42A12.37,12.37,0,0,0,81.11,97.29V72.05A12.36,12.36,0,0,0,68.79,59.73H64.37V57.91c8.72-.52,17.58,4.34,17.75,13.8V98.29S80.71,109.2,70.95,109.42Z"/><path class="cls-7" d="M59.54,50.62,60.2,50a.23.23,0,0,1,.32,0l.89.89a7,7,0,0,1,3.76-1.56V48a.23.23,0,0,1,.23-.23h.93a.23.23,0,0,1,.23.23V49.3a7,7,0,0,1,3.76,1.56l.89-.89a.23.23,0,0,1,.32,0l.66.66a.23.23,0,0,1,0,.32l-.89.89a7,7,0,0,1,1.56,3.76h1.26a.23.23,0,0,1,.23.23v.93a.23.23,0,0,1-.23.23H72.86a7,7,0,0,1-1.56,3.76l.89.89a.23.23,0,0,1,0,.32l-.66.66a.23.23,0,0,1-.32,0l-.89-.89a7,7,0,0,1-3.76,1.56v1.26a.23.23,0,0,1-.23.23H65.4a.23.23,0,0,1-.23-.23V63.28a7,7,0,0,1-3.76-1.56l-.89.89a.23.23,0,0,1-.32,0L59.54,62a.23.23,0,0,1,0-.32l.89-.89A7,7,0,0,1,58.88,57H57.62a.23.23,0,0,1-.23-.23v-.93a.23.23,0,0,1,.23-.23h1.26a7,7,0,0,1,1.56-3.76l-.89-.89a.23.23,0,0,1,0-.32Z"/><path class="cls-5" d="M59.38,50.35l.66-.66a.23.23,0,0,1,.32,0l.89.89A7,7,0,0,1,65,49V47.76a.23.23,0,0,1,.23-.23h.93a.23.23,0,0,1,.23.23V49a7,7,0,0,1,3.76,1.56l.89-.89a.23.23,0,0,1,.32,0l.66.66a.23.23,0,0,1,0,.32l-.89.89a7,7,0,0,1,1.56,3.76H74a.23.23,0,0,1,.23.23v.93a.23.23,0,0,1-.23.23H72.7a7,7,0,0,1-1.56,3.76l.89.89a.23.23,0,0,1,0,.32l-.66.66a.23.23,0,0,1-.32,0l-.89-.89A7,7,0,0,1,66.4,63v1.26a.23.23,0,0,1-.23.23h-.93a.23.23,0,0,1-.23-.23V63a7,7,0,0,1-3.76-1.56l-.89.89a.23.23,0,0,1-.32,0l-.66-.66a.23.23,0,0,1,0-.32l.89-.89a7,7,0,0,1-1.56-3.76H57.46a.23.23,0,0,1-.23-.23v-.93a.23.23,0,0,1,.23-.23h1.26a7,7,0,0,1,1.56-3.76l-.89-.89a.23.23,0,0,1,0-.32Z"/><path class="cls-5" d="M65.39,88.41H82.49a1.66,1.66,0,1,1,0,3.31H65.39a1.66,1.66,0,1,1,0-3.31Z"/><path class="cls-8" d="M44.67,86.81H74.13a.83.83,0,0,1,.83.83v5a.83.83,0,0,1-.83.83H44.67a.83.83,0,0,1-.83-.83v-5A.83.83,0,0,1,44.67,86.81Z"/><path class="cls-9" d="M75,92.22v.39a.83.83,0,0,1-.83.83H44.67a.83.83,0,0,1-.83-.83v-.39Z"/><path class="cls-4" d="M65.71,58a2,2,0,1,0-2-2A2,2,0,0,0,65.71,58Z"/><path class="cls-5" d="M65,101.43H82.86a1.3,1.3,0,0,1,1.29,1.3h0A1.3,1.3,0,0,1,82.86,104H65a1.3,1.3,0,0,1-1.3-1.29h0A1.3,1.3,0,0,1,65,101.43Z"/><path class="cls-4" d="M59.73,103.12l13-6.32a.54.54,0,0,1,.71.25l1.4,2.89a.54.54,0,0,1-.25.71l-13,6.32a.54.54,0,0,1-.71-.25l-1.4-2.89a.54.54,0,0,1,.25-.71Z"/><path class="cls-6" d="M82.15,91.11a1,1,0,1,0-1-1A1,1,0,0,0,82.15,91.11Z"/><path class="cls-6" d="M82.66,103.54a.69.69,0,1,0-.69-.69A.7.7,0,0,0,82.66,103.54Z"/><path class="cls-6" d="M40.37,119.28H90.18a1.94,1.94,0,0,1-1.87,1.47H42.24A1.94,1.94,0,0,1,40.37,119.28Z"/></g></g></svg>