<svg xmlns="http://www.w3.org/2000/svg" viewBox="0 0 122.24 122.24"><defs><style>.cls-1{fill:none;stroke:#1a91a1;stroke-miterlimit:10;stroke-width:0.98px;}.cls-2{fill:#1a91a1;}.cls-3{fill:#ecf0f1;}.cls-4{fill:#15bdb1;}.cls-5{fill:#20d0c2;}.cls-6{fill:#666;}.cls-7{fill:#807d7d;}</style></defs><title>icon-012</title><g id="Слой_2" data-name="Слой 2"><g id="Layer_5" data-name="Layer 5"><circle class="cls-1" cx="61.12" cy="61.12" r="60.63"/><path class="cls-2" d="M61.34,1.51A59.34,59.34,0,1,1,2,60.85,59.34,59.34,0,0,1,61.34,1.51Z"/><path class="cls-3" d="M106.28,54.78c1.05.35,1.76,2.63.56,6.23s-3.13,5-4.18,4.64c-.62-.21-.72-.29-1.53-.57l.17-.51A6.54,6.54,0,0,1,101,59a6.5,6.5,0,0,1,3.58-4.22l.17-.5C105.49,54.58,105.66,54.57,106.28,54.78Z"/><path class="cls-4" d="M104.46,54.17c1.32.44,1.59,3.24.59,6.24s-2.88,5.07-4.2,4.63-1.59-3.24-.59-6.24S103.14,53.73,104.46,54.17Z"/><path class="cls-5" d="M91.48,49.74l12,5c2.07,1.22-.07,8.5-2.93,8.92L87.88,60.55l3.6-10.82Z"/><path class="cls-6" d="M16.71,12.67h0Zm.51.22h0l76.6,34.65c4,4.86.83,15.51-5.44,16.36L6.44,45.31C10.57,46,16,40,18.84,31.46S20.93,14.85,17.22,12.89ZM5.92,45.18Z"/><path class="cls-7" d="M16.78,12.69c4.16,1.4,5.11,9.81,2.13,18.79S10.12,46.6,6,45.2.85,35.39,3.83,26.42s8.78-15.12,12.94-13.73Z"/><path class="cls-3" d="M15.07,15.33c2.72.91,3.06,7.24.77,14.13S9.48,41.2,6.76,40.29,3.7,33,6,26.15,12.35,14.41,15.07,15.33Z"/><path class="cls-5" d="M53.14,119.62l12-47.78-3.95-.77L50.57,119.21Q51.85,119.44,53.14,119.62Zm35.54-6.1h0q-1.26.65-2.55,1.25l-14-42.93,3.94-.77Zm-17,5.76h0q-1.44.25-2.89.44L66.88,71h3.88Z"/><path class="cls-6" d="M78.4,67.31V70c-.35,3.32-19.78,2.42-19.16-.41V66.28c-.32,1.45,16.62,2.32,19,.5A1.1,1.1,0,0,1,78.4,67.31Z"/><path class="cls-5" d="M59.45,57.34c7.82,1.77,14.18,3.11,19.69-6.81l3.39,1.58C81,57,76.86,60.58,73.2,61.29V64.9c2.63.44,4.54,1.13,5.07,1.88-2.41,1.82-19.35,1-19-.5.18-.84,2.2-1.27,5.07-1.53V60.61C61.51,60.23,59.6,58.55,59.45,57.34Z"/></g></g></svg>