<svg xmlns="http://www.w3.org/2000/svg" viewBox="0 0 65.23 65.23"><defs><style>.cls-1,.cls-4{fill:#fff;}.cls-1,.cls-2,.cls-3{stroke:#ffba1b;stroke-miterlimit:10;}.cls-1{stroke-width:0.57px;}.cls-1,.cls-2{opacity:0.7;}.cls-2,.cls-3{fill:#ffba1b;}.cls-2{stroke-width:15.55px;}.cls-3{stroke-width:15.38px;}</style></defs><title>icon-005</title><g id="Слой_2" data-name="Слой 2"><g id="Layer_5" data-name="Layer 5"><circle class="cls-1" cx="32.62" cy="32.62" r="32.33"/><path class="cls-2" d="M16.09,49.37c-9-10-8.46-25.09,1.16-33.73s24.68-7.55,33.66,2.44"/><path class="cls-3" d="M50.72,17.87A23.41,23.41,0,1,1,15.9,49.16"/><g id="Layer_1" data-name="Layer 1"><path class="cls-4" d="M42.42,33.5l-.2.21a14.59,14.59,0,0,1-2.62,2.08,19.16,19.16,0,0,1,2.62,5.4c.77,2.68.52,4.91-.69,6.12a4.45,4.45,0,0,1-3.27,1.13c-3.6,0-8.23-2.4-12.09-6.25-6-6-7.54-12.93-5.12-15.35a4.44,4.44,0,0,1,3.27-1.13,15.52,15.52,0,0,1,8.25,3.06,14.7,14.7,0,0,1,2.08-2.62l.21-.2c-3.53-2.46-7.26-3.86-10.54-3.86a8,8,0,0,0-5.83,2.19c-4.3,4.3-2.06,13.3,5.12,20.47,4.57,4.58,10.05,7.31,14.64,7.31a8,8,0,0,0,5.82-2.19c2.19-2.19,2.77-5.63,1.61-9.67A22.9,22.9,0,0,0,42.42,33.5Z"/><path class="cls-4" d="M27.38,28.44a3.39,3.39,0,0,0-2.48,1c-.67.67-1.6,2.25-.27,5.28a18.28,18.28,0,0,0,3.79,5.28c2.76,2.76,5.85,4.47,8.07,4.47a3.39,3.39,0,0,0,2.48-1c.67-.67,1.61-2.25.27-5.28a13.81,13.81,0,0,0-.91-1.69A14,14,0,0,1,33.22,38a2.71,2.71,0,0,1-2.83-2.83A13.9,13.9,0,0,1,31.86,30,9.09,9.09,0,0,0,27.38,28.44Z"/><path class="cls-4" d="M51.69,22.46a.9.9,0,0,0-.61-.65l-3.44-1.08-1.08-3.45a.91.91,0,0,0-1.5-.37l-3.14,3.14a.9.9,0,0,0-.25.81l.39,2a24.84,24.84,0,0,0-6.12,4.58,12.7,12.7,0,0,0-3.73,7.8.91.91,0,0,0,.94.94,12.7,12.7,0,0,0,7.8-3.73,24.9,24.9,0,0,0,4.58-6.12l2,.39a.9.9,0,0,0,.81-.25l3.14-3.14A.9.9,0,0,0,51.69,22.46Z"/></g></g></g></svg>