<svg xmlns="http://www.w3.org/2000/svg" viewBox="0 0 65.67 65.67"><defs><style>.cls-1,.cls-4{fill:#fff;}.cls-1,.cls-2,.cls-3{stroke:#ec4b53;stroke-miterlimit:10;}.cls-1,.cls-3{opacity:0.8;}.cls-2,.cls-3{fill:#ec4b53;stroke-width:13.83px;}</style></defs><title>icon-004</title><g id="Слой_2" data-name="Слой 2"><g id="Layer_5" data-name="Layer 5"><circle class="cls-1" cx="32.83" cy="32.83" r="32.33"/><path class="cls-2" d="M50.4,15.41c9.35,10.4,8.81,26.13-1.2,35.13S23.48,58.4,14.14,48"/><path class="cls-3" d="M14.33,48.22A24.38,24.38,0,1,1,50.59,15.63"/><g id="Layer_1" data-name="Layer 1"><path class="cls-4" d="M45.12,20.52c0-.61-.62-.78-1.1-.89v1.77C44.56,21.36,45.12,21.11,45.12,20.52Z"/><path class="cls-4" d="M43.49,16.75c-.61,0-1,.38-1,.76s.33.7,1,.84v-1.6Z"/><path class="cls-4" d="M43.74,24.51a5.4,5.4,0,1,0-5.4-5.39A5.4,5.4,0,0,0,43.74,24.51Zm-2.37-6.79a2,2,0,0,1,2.12-1.87v-.47a.27.27,0,1,1,.53,0v.47c.69,0,2.12.45,2.12,1.33a.54.54,0,0,1-.56.55c-.58,0-.57-1-1.56-1v1.7c1.18.25,2.22.6,2.22,2,0,1.19-.89,1.8-2.22,1.88v.55a.27.27,0,1,1-.53,0V22.3c-1.51,0-2.26-.94-2.26-1.64a.51.51,0,0,1,.55-.56c1,0,.22,1.23,1.7,1.29V19.53C42.17,19.29,41.37,18.71,41.37,17.72Z"/><path class="cls-4" d="M22,37.75H17.37a1.55,1.55,0,0,0-1.55,1.55v7a1.55,1.55,0,0,0,1.55,1.55H22a1.55,1.55,0,0,0,1.55-1.55v-7A1.55,1.55,0,0,0,22,37.75Z"/><path class="cls-4" d="M34,32.32H29.39a1.55,1.55,0,0,0-1.55,1.55v12.4a1.55,1.55,0,0,0,1.55,1.55H34a1.55,1.55,0,0,0,1.55-1.55V33.87A1.55,1.55,0,0,0,34,32.32Z"/><path class="cls-4" d="M46.07,26.12H41.42a1.55,1.55,0,0,0-1.55,1.55V46.28a1.55,1.55,0,0,0,1.55,1.55h4.65a1.55,1.55,0,0,0,1.55-1.55V27.67A1.55,1.55,0,0,0,46.07,26.12Z"/><path class="cls-4" d="M36.77,21.68l-3.85-.8A.78.78,0,0,0,32.08,22l.85,1.6L15.86,32.41a.77.77,0,0,0,.36,1.46.76.76,0,0,0,.35-.09L33.66,25l.78,1.47a.77.77,0,0,0,.68.41h0a.77.77,0,0,0,.68-.48l1.49-3.64a.77.77,0,0,0,0-.66A.79.79,0,0,0,36.77,21.68Z"/></g></g></g></svg>