<svg xmlns="http://www.w3.org/2000/svg" viewBox="0 0 123.11 123.11"><defs><style>.cls-1{fill:none;stroke:#1a91a1;stroke-miterlimit:10;stroke-width:1px;}.cls-2{fill:#1a91a1;}.cls-3{fill:#ffba1b;}.cls-4{fill:#20d0c2;}.cls-5{fill:#f5a209;}.cls-6{fill:#15bdb1;}.cls-7{fill:#fecd0d;}.cls-8{fill:#fff;}</style></defs><title>icon-014</title><g id="Слой_2" data-name="Слой 2"><g id="Layer_5" data-name="Layer 5"><circle class="cls-1" cx="61.55" cy="61.55" r="61.05"/><path class="cls-2" d="M61.63,121.62a60.1,60.1,0,1,0-60.1-60.1A60.22,60.22,0,0,0,61.63,121.62Z"/><path class="cls-3" d="M111.93,13.46,28.51,42.16l25.41,5.07,58-33.77Z"/><path class="cls-4" d="M28.51,42.16l25.41,5.07,16.86-9.82Z"/><path class="cls-5" d="M53.92,47.23l3.94,30,54.07-63.72Z"/><path class="cls-6" d="M53.92,47.23l3.94,30L82,48.7l-4.17-6.8-8.26,6.9,1.2-11.39h0L53.92,47.23h0Z"/><path class="cls-7" d="M111.93,13.46,63,54.26,57.86,77.18Z"/><path class="cls-4" d="M69.59,48.8,63,54.26,57.86,77.18,82,48.7l-4.17-6.8-8.26,6.9h0Z"/><path class="cls-3" d="M95.3,70.33l16.63-56.88L63,54.26,95.3,70.33Z"/><path class="cls-4" d="M69.55,48.8,63,54.26,95.26,70.33,77.82,41.9l-8.27,6.9h0Z"/><path class="cls-8" d="M12.35,85.62,46.13,52.71l1.49,2Zm39.61,23h0l30.6-35.17,2.15,1ZM26.44,105.2h0L55,79.6l-1.56-1.34Z"/></g></g></svg>